<?xml version="1.0" encoding="UTF-8"?>
<svg xmlns="http://www.w3.org/2000/svg" xmlns:xlink="http://www.w3.org/1999/xlink" width="440pt" height="440pt" viewBox="225 65 440 440">
<path fill-rule="nonzero" fill="rgb(0%, 0%, 0%)" fill-opacity="1" d="M 258.300781 227.320312 C 258.300781 227.320312 260.234375 225.488281 260.632812 224.890625 C 264.304688 225.933594 265.644531 227.320312 265.644531 227.320312 C 265.644531 227.320312 261.738281 228.03125 258.300781 227.320312 M 646.773438 305.042969 C 643.601562 289.769531 630.707031 283.617188 617.015625 275.683594 C 627.925781 271.316406 640.496094 265.5625 640.496094 265.5625 C 640.496094 265.5625 610.730469 253.527344 584.015625 249.691406 C 585.070312 258.554688 586 265.5625 586 265.5625 L 578.921875 261.894531 C 578.921875 261.894531 580.804688 259.015625 578.921875 255.046875 C 577.039062 251.082031 573.664062 246.320312 561.066406 242.746094 C 567.214844 239.773438 570.589844 236.199219 570.789062 233.621094 C 570.984375 231.042969 569.300781 230.445312 565.527344 230.445312 C 574.65625 223.601562 585.339844 212.921875 589.703125 201.941406 C 594.066406 190.964844 594.726562 179.191406 586.925781 173.636719 C 579.121094 168.082031 568.140625 163.71875 541.820312 168.347656 C 515.5 172.976562 499.890625 183.558594 487.988281 192.417969 C 478.203125 192.550781 470.664062 192.289062 470.664062 192.289062 C 470.664062 192.289062 484.152344 182.496094 484.152344 157.632812 C 491.820312 156.179688 505.183594 153.269531 505.183594 153.269531 C 505.183594 153.269531 506.207031 158.625 512.457031 157.433594 C 516.820312 156.441406 516.820312 151.183594 514.9375 148.605469 C 513.050781 146.027344 506.902344 145.53125 505.113281 150.789062 C 499.558594 151.78125 483.589844 154.457031 483.589844 154.457031 C 483.589844 154.457031 482.597656 141.066406 474.859375 129.160156 C 467.121094 117.257812 451.085938 104.859375 438.125 104.992188 C 425.160156 105.121094 419.078125 106.84375 419.078125 106.84375 C 419.078125 106.84375 426.25 101.882812 424.464844 99.003906 C 422.679688 96.128906 413.652344 98.210938 413.652344 98.210938 C 413.652344 98.210938 424.167969 89.28125 424.167969 86.007812 C 424.167969 82.734375 417.125 81.046875 403.039062 89.183594 C 408.195312 80.851562 407.105469 75.097656 405.515625 74.105469 C 403.929688 73.113281 395.300781 74.699219 386.46875 85.414062 C 377.640625 96.128906 375.097656 101.285156 375.097656 101.285156 C 375.097656 101.285156 371.789062 88.851562 369.210938 84.289062 C 366.628906 79.726562 359.089844 74.371094 357.304688 80.917969 C 355.519531 87.464844 358.363281 102.011719 358.363281 102.011719 C 358.363281 102.011719 348.246094 93.480469 343.21875 92.886719 C 338.191406 92.289062 329.988281 93.21875 345.136719 110.414062 C 339.121094 110.015625 330.257812 110.015625 330.320312 114.644531 C 330.390625 119.273438 337.929688 123.769531 349.171875 126.019531 C 343.152344 126.8125 338.324219 130.449219 335.085938 134.617188 C 331.84375 138.785156 324.636719 147.847656 323.3125 162.527344 C 321.988281 177.210938 325.691406 187.394531 325.691406 187.394531 L 312.464844 189.675781 C 312.464844 189.675781 310.683594 186.203125 306.84375 187.65625 C 303.011719 189.113281 303.011719 194.402344 305.589844 196.253906 C 308.167969 198.105469 313.789062 197.046875 313.191406 192.550781 C 316.039062 192.222656 327.148438 190.964844 327.148438 190.964844 C 327.148438 190.964844 333.695312 206.242188 351.054688 216.558594 C 341.136719 221.71875 330.621094 232.332031 333.496094 236.496094 C 336.375 240.664062 354.132812 230.941406 360.082031 227.867188 C 355.816406 233.523438 353.039062 240.167969 351.949219 243.640625 C 346.691406 245.425781 337.761719 249.097656 337.761719 249.097656 L 307.605469 232.628906 C 307.605469 232.628906 324.667969 230.941406 322.289062 225.289062 C 319.90625 219.632812 308.597656 220.128906 308.597656 220.128906 C 308.597656 220.128906 318.816406 212.886719 316.039062 209.117188 C 313.261719 205.347656 302.546875 213.085938 296.394531 219.535156 C 291.832031 207.730469 284.988281 197.113281 280.921875 192.949219 C 276.851562 188.78125 272.785156 188.683594 266.636719 191.460938 C 260.484375 194.238281 245.503906 202.171875 242.828125 205.945312 C 240.148438 209.714844 234.492188 218.046875 234.195312 220.726562 C 233.898438 223.402344 234.195312 226.378906 234.195312 226.378906 C 234.195312 226.378906 221.894531 230.644531 213.164062 237.488281 C 201.558594 238.78125 189.851562 240.367188 161.085938 236.398438 C 132.316406 232.429688 105.730469 224.5625 105.730469 224.5625 C 105.730469 224.5625 110.492188 230.910156 116.710938 235.539062 C 108.375 232.230469 98.058594 226.542969 96.734375 228.132812 C 95.414062 229.71875 100.308594 236.996094 112.738281 243.476562 C 98.984375 240.960938 93.03125 239.507812 92.636719 241.359375 C 92.238281 243.210938 100.304688 252.46875 115.253906 258.15625 C 103.085938 258.15625 95.214844 257.328125 94.421875 260.007812 C 93.628906 262.6875 104.738281 266.953125 116.445312 270.125 C 108.011719 271.714844 93.429688 277.367188 94.621094 281.140625 C 95.808594 284.90625 104.539062 284.710938 121.402344 282.230469 C 111.980469 286.988281 99.382812 296.8125 101.066406 299.488281 C 102.753906 302.167969 114.261719 299.09375 124.28125 295.421875 C 115.949219 301.175781 109.003906 308.714844 108.902344 311.292969 C 108.804688 313.871094 111.882812 315.261719 120.113281 313.179688 C 128.347656 311.097656 140.945312 304.449219 140.945312 304.449219 C 140.945312 304.449219 128.25 321.214844 128.347656 324.785156 C 128.445312 328.355469 131.917969 327.863281 137.375 324.289062 C 142.832031 320.71875 153.742188 311.292969 153.742188 311.292969 C 153.742188 311.292969 143.625 331.035156 143.425781 335.996094 C 143.226562 340.953125 144.617188 341.648438 147.296875 340.160156 C 149.972656 338.671875 158.40625 327.5625 160.886719 321.511719 C 159.796875 331.234375 161.085938 341.449219 163.367188 341.351562 C 165.648438 341.253906 163.066406 339.964844 170.113281 322.503906 C 177.15625 305.042969 189.191406 275.351562 215.644531 243.34375 C 222.789062 243.609375 239.253906 237.589844 248.878906 233.222656 C 248.976562 237.390625 249.570312 238.582031 250.5625 239.574219 C 251.554688 240.566406 261.675781 250.089844 264.847656 250.1875 C 268.023438 250.285156 282.40625 246.21875 282.40625 246.21875 C 282.40625 246.21875 282.308594 259.808594 286.175781 259.710938 C 290.046875 259.613281 291.832031 250.980469 291.832031 250.980469 C 291.832031 250.980469 296.792969 265.167969 305.125 275.484375 C 313.457031 285.800781 320.402344 292.445312 334.09375 298.398438 C 347.78125 304.351562 361.371094 304.648438 377.144531 297.902344 C 379.527344 304.546875 390.140625 326.667969 403.632812 340.160156 C 393.613281 348.496094 388.058594 354.945312 383.097656 359.902344 C 378.136719 364.863281 373.96875 369.328125 375.460938 371.113281 C 376.945312 372.898438 384.683594 374.882812 406.511719 358.8125 C 402.542969 369.527344 400.0625 382.621094 400.953125 387.679688 C 401.847656 392.738281 403.929688 393.035156 406.511719 392.9375 C 405.21875 400.277344 400.757812 427.261719 400.757812 427.261719 L 498.171875 431.625 C 498.171875 431.625 496.78125 441.941406 492.121094 445.8125 C 487.457031 449.679688 477.4375 451.269531 470.195312 452.65625 C 462.957031 454.042969 449.761719 463.070312 448.96875 479.640625 C 458.789062 479.738281 466.128906 480.433594 466.128906 480.433594 C 466.128906 480.433594 465.234375 492.335938 476.546875 492.140625 C 487.855469 491.941406 489.242188 481.324219 489.242188 481.324219 L 498.867188 481.324219 C 498.867188 481.324219 499.460938 491.945312 510.078125 492.140625 C 517.019531 492.238281 519.5 488.269531 519.5 488.269531 C 519.5 488.269531 522.476562 492.246094 529.421875 492.144531 C 536.363281 492.039062 540.628906 485.59375 540.53125 479.640625 C 543.902344 479.738281 545.292969 479.9375 545.886719 478.449219 C 546.480469 476.960938 550.453125 468.230469 546.382812 462.777344 C 542.316406 457.320312 534.675781 454.144531 526.640625 450.96875 C 518.605469 447.796875 514.9375 448.191406 518.507812 432.121094 C 530.609375 432.617188 604.914062 434.867188 604.914062 434.867188 C 604.914062 434.867188 619.792969 405.238281 629.910156 378.652344 C 640.027344 352.066406 649.949219 320.320312 646.773438 305.042969 "/>
<path fill-rule="nonzero" fill="rgb(100%, 100%, 100%)" fill-opacity="1" d="M 374.367188 105.652344 C 374.367188 105.652344 371.6875 96.128906 368.515625 89.777344 C 365.339844 83.429688 362.363281 80.949219 360.382812 82.835938 C 358.394531 84.71875 359.6875 98.507812 361.671875 108.03125 C 354.03125 100.492188 342.523438 94.144531 340.34375 96.625 C 338.160156 99.105469 349.070312 112 352.742188 115.074219 C 345.101562 112.894531 334.6875 112.398438 333.992188 115.074219 C 333.300781 117.753906 346.492188 123.109375 353.4375 124.699219 C 364.746094 122.316406 376.351562 119.242188 388.457031 115.96875 C 400.558594 112.695312 407.304688 111.304688 411.566406 108.726562 C 415.835938 106.148438 422.679688 102.871094 420.597656 100.890625 C 418.511719 98.90625 399.265625 103.457031 399.265625 103.457031 C 399.265625 103.457031 408.59375 98.707031 414.148438 93.746094 C 419.703125 88.785156 422.28125 85.8125 418.015625 86.605469 C 413.75 87.398438 402.640625 91.464844 390.238281 100.59375 C 397.976562 90.871094 399.664062 88.390625 401.449219 84.519531 C 403.234375 80.652344 404.722656 75.789062 400.558594 78.074219 C 396.390625 80.355469 387.164062 87.199219 374.367188 105.652344 "/>
<path fill-rule="nonzero" fill="rgb(77.598572%, 100%, 99.198914%)" fill-opacity="1" d="M 422.976562 109.617188 C 422.976562 109.617188 383.785156 120.035156 370 123.40625 C 356.214844 126.78125 344.210938 128.070312 341.433594 131.144531 C 338.65625 134.222656 326.15625 149.101562 329.132812 175.886719 C 332.109375 202.671875 351.949219 214.574219 351.949219 214.574219 L 434.484375 202.472656 C 434.484375 202.472656 413.949219 195.132812 406.90625 178.5625 C 399.863281 161.996094 392.027344 128.664062 422.976562 109.617188 "/>
<path fill-rule="nonzero" fill="rgb(0%, 0%, 0%)" fill-opacity="1" d="M 348.574219 128.964844 C 348.574219 128.964844 353.4375 143.644531 352.839844 150.789062 C 352.246094 157.929688 347.085938 162.691406 343.121094 162.792969 C 339.152344 162.890625 337.070312 162.988281 334.6875 159.417969 C 332.308594 155.847656 333 139.378906 342.324219 138.289062 C 345.402344 132.929688 348.574219 128.964844 348.574219 128.964844 "/>
<path fill-rule="nonzero" fill="rgb(99.598694%, 41.999817%, 0%)" fill-opacity="1" d="M 342.554688 139.710938 C 345.132812 139.898438 346.722656 145.597656 345.863281 150.953125 C 345.003906 156.308594 342.296875 160.929688 338.921875 160.742188 C 335.542969 160.554688 334.6875 155.257812 335.28125 150.226562 C 335.878906 145.199219 338.917969 139.445312 342.554688 139.710938 "/>
<path fill-rule="nonzero" fill="rgb(99.598694%, 41.999817%, 0%)" fill-opacity="1" d="M 345.335938 139.699219 C 345.335938 139.699219 348.707031 143.875 347.914062 149.628906 C 347.121094 155.382812 344.144531 159.75 344.144531 159.75 C 344.144531 159.75 348.773438 159.019531 349.964844 153.863281 C 351.15625 148.703125 351.21875 140.175781 345.335938 139.699219 "/>
<path fill-rule="nonzero" fill="rgb(0%, 0%, 0%)" fill-opacity="1" d="M 383.695312 120.628906 L 377.472656 129.359375 C 377.472656 129.359375 368.117188 130.351562 366.925781 140.964844 C 365.738281 151.582031 371.195312 158.128906 376.847656 157.730469 C 382.503906 157.335938 385.28125 156.144531 387.960938 152.277344 C 390.636719 148.40625 391.132812 143.148438 387.960938 133.328125 C 384.785156 123.507812 383.695312 120.628906 383.695312 120.628906 "/>
<path fill-rule="nonzero" fill="rgb(99.598694%, 41.999817%, 0%)" fill-opacity="1" d="M 377.472656 131.640625 C 381.113281 131.738281 383.890625 137.195312 383.296875 144.242188 C 382.703125 151.285156 378.632812 154.855469 375.0625 154.855469 C 371.492188 154.855469 368.515625 150.492188 368.910156 143.246094 C 369.308594 136.007812 373.734375 131.542969 377.472656 131.640625 "/>
<path fill-rule="nonzero" fill="rgb(99.598694%, 41.999817%, 0%)" fill-opacity="1" d="M 381.582031 132.136719 C 381.582031 132.136719 385.476562 136.101562 384.980469 143.246094 C 384.484375 150.390625 381.164062 154.0625 378.460938 155.449219 C 382.402344 155.25 388.058594 151.480469 388.257812 144.339844 C 388.453125 137.195312 384.824219 133.128906 381.582031 132.136719 "/>
<path fill-rule="nonzero" fill="rgb(14.898682%, 72.499084%, 99.198914%)" fill-opacity="1" d="M 429.523438 108.957031 C 413.644531 112.898438 404.894531 132.398438 403.535156 148.109375 C 402.171875 163.820312 409.882812 180.449219 419.40625 189.375 C 428.929688 198.304688 440.371094 202.867188 450.953125 200.488281 C 461.535156 198.105469 471.585938 190.433594 475.027344 178.398438 C 478.464844 166.363281 477.804688 158.691406 477.804688 158.691406 C 477.804688 158.691406 465.335938 161.5 461.664062 162.097656 C 457.996094 162.691406 457.003906 163.289062 456.707031 161.601562 C 456.410156 159.914062 455.914062 159.21875 458.292969 158.921875 C 460.671875 158.625 477.851562 155.550781 477.851562 155.550781 C 477.851562 155.550781 477.242188 144.140625 470.890625 133.527344 C 464.542969 122.914062 447.644531 104.460938 429.523438 108.957031 "/>
<path fill-rule="nonzero" fill="rgb(0%, 0%, 0%)" fill-opacity="1" d="M 453.996094 151.46875 C 448.699219 151.46875 444.390625 155.777344 444.390625 161.070312 C 444.390625 166.367188 448.699219 170.675781 453.996094 170.675781 C 459.292969 170.675781 463.597656 166.367188 463.597656 161.070312 C 463.597656 155.777344 459.292969 151.46875 453.996094 151.46875 M 453.996094 172.898438 C 447.472656 172.898438 442.167969 167.59375 442.167969 161.070312 C 442.167969 154.550781 447.472656 149.246094 453.996094 149.246094 C 460.515625 149.246094 465.820312 154.550781 465.820312 161.070312 C 465.820312 167.59375 460.515625 172.898438 453.996094 172.898438 "/>
<path fill-rule="nonzero" fill="rgb(99.598694%, 41.999817%, 0%)" fill-opacity="1" d="M 514.558594 152.117188 C 514.558594 154.214844 512.859375 155.914062 510.761719 155.914062 C 508.664062 155.914062 506.964844 154.214844 506.964844 152.117188 C 506.964844 150.023438 508.664062 148.324219 510.761719 148.324219 C 512.859375 148.324219 514.558594 150.023438 514.558594 152.117188 "/>
<path fill-rule="nonzero" fill="rgb(99.598694%, 41.999817%, 0%)" fill-opacity="1" d="M 311.789062 192.167969 C 311.789062 193.957031 310.335938 195.410156 308.546875 195.410156 C 306.753906 195.410156 305.304688 193.957031 305.304688 192.167969 C 305.304688 190.375 306.753906 188.921875 308.546875 188.921875 C 310.335938 188.921875 311.789062 190.375 311.789062 192.167969 "/>
<path fill-rule="nonzero" fill="rgb(0%, 0%, 0%)" fill-opacity="1" d="M 367.292969 168.214844 C 367.292969 168.214844 358.136719 169.535156 352.894531 170.527344 C 347.648438 171.519531 345.46875 171.585938 344.605469 174.695312 C 343.746094 177.804688 342.027344 187.394531 347.78125 194.335938 C 353.535156 201.28125 359.6875 204.589844 359.6875 204.589844 L 384.222656 199.496094 C 384.222656 199.496094 375.097656 191.957031 371.523438 185.476562 C 367.953125 178.992188 367.027344 171.851562 367.292969 168.214844 "/>
<path fill-rule="nonzero" fill="rgb(77.598572%, 100%, 99.198914%)" fill-opacity="1" d="M 365.636719 170.066406 C 365.636719 170.066406 360.015625 171.058594 354.792969 172.117188 C 349.566406 173.175781 347.320312 173.902344 346.921875 174.5625 C 346.527344 175.222656 346.128906 182.039062 347.914062 186.929688 C 354.59375 185.605469 366.960938 183.359375 366.960938 183.359375 C 366.960938 183.359375 365.441406 177.273438 365.636719 170.066406 "/>
<path fill-rule="nonzero" fill="rgb(77.598572%, 100%, 99.198914%)" fill-opacity="1" d="M 348.511719 188.386719 L 367.359375 184.75 C 367.359375 184.75 371.527344 192.882812 380.453125 198.769531 C 373.246094 199.828125 359.6875 202.472656 359.6875 202.472656 C 359.6875 202.472656 353.800781 199.824219 348.511719 188.386719 "/>
<path fill-rule="nonzero" fill="rgb(100%, 100%, 100%)" fill-opacity="1" d="M 354.792969 217.023438 C 354.792969 217.023438 337.265625 230.941406 337.265625 233.125 C 337.265625 235.308594 342.296875 232.628906 348.511719 229.851562 C 354.726562 227.074219 366.628906 221.914062 366.628906 221.914062 C 366.628906 221.914062 359.6875 232.628906 357.007812 239.375 C 354.328125 246.121094 355.222656 248.996094 358.59375 248.300781 C 361.96875 247.609375 378.601562 240.566406 393.019531 220.460938 C 390.371094 232.761719 389.742188 248.898438 396.886719 248.898438 C 404.027344 248.898438 416.300781 230.648438 419.871094 219.402344 C 425.554688 223.632812 437.59375 229.851562 447.25 231.703125 C 456.902344 233.554688 461.664062 230.910156 459.8125 227.734375 C 457.964844 224.5625 450.816406 216.097656 444.601562 211.335938 C 454.921875 214.375 465.105469 215.699219 474.363281 215.433594 C 483.621094 215.167969 488.652344 211.332031 485.210938 209.347656 C 481.773438 207.367188 467.75 201.113281 467.75 201.113281 C 467.75 201.113281 477.9375 200.488281 480.449219 199.695312 C 481.902344 197.578125 483.757812 195.859375 483.757812 195.859375 L 467.355469 194.402344 C 467.355469 194.402344 461.136719 202.078125 441.5625 204.589844 C 421.984375 207.101562 354.792969 217.023438 354.792969 217.023438 "/>
<path fill-rule="nonzero" fill="rgb(77.598572%, 100%, 99.198914%)" fill-opacity="1" d="M 365.109375 249.957031 C 365.109375 249.957031 351.847656 255.742188 351.550781 247.707031 C 342.625 251.179688 339.183594 252.601562 339.183594 252.601562 C 339.183594 252.601562 338.128906 260.902344 339.183594 265.5625 C 340.242188 270.226562 341.632812 270.125 346.195312 272.605469 C 350.757812 275.085938 355.816406 280.839844 355.519531 286.691406 C 355.222656 292.542969 350.0625 297.007812 350.0625 297.007812 C 350.0625 297.007812 364.945312 300.480469 376.351562 295.324219 C 368.714844 275.382812 368.417969 267.285156 365.109375 249.957031 "/>
<path fill-rule="nonzero" fill="rgb(77.598572%, 100%, 99.198914%)" fill-opacity="1" d="M 337.265625 252.867188 L 308.695312 236.496094 C 308.695312 236.496094 316.433594 246.320312 312.367188 248.898438 C 308.300781 251.476562 299.667969 246.8125 293.617188 241.753906 C 293.222656 245.824219 292.824219 248.203125 292.824219 248.203125 C 292.824219 248.203125 298.179688 261.792969 310.78125 274.492188 C 323.378906 287.1875 337.945312 294.84375 347.484375 296.414062 C 352.148438 292.941406 354.125 290.417969 353.335938 284.3125 C 352.546875 278.207031 344.507812 273.894531 340.835938 271.8125 C 337.167969 269.730469 334.488281 264.871094 337.265625 252.867188 "/>
<path fill-rule="nonzero" fill="rgb(0%, 0%, 0%)" fill-opacity="1" d="M 341.300781 288.449219 C 339.730469 288.449219 338.457031 287.171875 338.457031 285.601562 C 338.457031 284.03125 339.730469 282.757812 341.300781 282.757812 C 342.871094 282.757812 344.144531 284.03125 344.144531 285.601562 C 344.144531 287.171875 342.871094 288.449219 341.300781 288.449219 M 341.832031 281.238281 C 339.273438 281.238281 337.199219 283.308594 337.199219 285.867188 C 337.199219 288.421875 339.273438 290.496094 341.832031 290.496094 C 344.386719 290.496094 346.457031 288.421875 346.457031 285.867188 C 346.457031 283.308594 344.386719 281.238281 341.832031 281.238281 "/>
<path fill-rule="nonzero" fill="rgb(100%, 100%, 100%)" fill-opacity="1" d="M 302.84375 231.4375 C 302.84375 231.4375 312.367188 244.832031 309.789062 246.617188 C 307.207031 248.402344 294.210938 240.863281 292.425781 239.027344 C 291.632812 244.832031 287.964844 256.535156 286.277344 256.4375 C 284.589844 256.335938 284.195312 247.410156 284.691406 244.433594 C 289.253906 239.375 292.425781 233.820312 294.210938 230.546875 C 296 227.273438 297.585938 223.769531 296.992188 221.652344 C 300.761719 217.453125 311.9375 209.484375 313.128906 211.070312 C 314.320312 212.65625 304.398438 221.652344 304.398438 221.652344 C 304.398438 221.652344 319.277344 222.117188 319.210938 225.421875 C 319.148438 228.726562 310.878906 230.3125 302.84375 231.4375 "/>
<path fill-rule="nonzero" fill="rgb(77.598572%, 100%, 99.198914%)" fill-opacity="1" d="M 238.265625 218.839844 C 238.265625 218.839844 254.730469 210.226562 262.269531 210.863281 C 269.808594 211.5 278.042969 218.640625 288.957031 234.710938 C 292.625 229.554688 296.097656 224.890625 295.898438 223.203125 C 295.703125 221.519531 289.550781 212.09375 285.878906 206.042969 C 282.210938 199.992188 278.640625 193.507812 271.398438 195.410156 C 264.15625 197.3125 247.191406 204.457031 245.40625 206.738281 C 243.621094 209.019531 238.265625 218.839844 238.265625 218.839844 "/>
<path fill-rule="nonzero" fill="rgb(77.598572%, 100%, 99.198914%)" fill-opacity="1" d="M 287.929688 236.070312 L 284.890625 240.300781 C 284.890625 240.300781 278.144531 230.910156 271.792969 226.875 C 265.445312 222.839844 257.046875 219.867188 250.234375 222.179688 C 243.421875 224.496094 238.265625 226.609375 238.265625 226.609375 C 238.265625 226.609375 235.785156 222.808594 236.972656 222.0625 C 238.164062 221.320312 253.835938 212.886719 261.378906 213.382812 C 268.917969 213.878906 276.988281 220.859375 287.929688 236.070312 "/>
<path fill-rule="nonzero" fill="rgb(77.598572%, 100%, 99.198914%)" fill-opacity="1" d="M 256.054688 228.792969 C 256.054688 228.792969 252.546875 230.910156 251.820312 231.902344 C 255.394531 233.886719 260.351562 235.144531 266.039062 235.472656 C 271.730469 235.804688 275.960938 234.214844 275.960938 234.214844 C 275.960938 234.214844 271.199219 228.941406 268.421875 228.132812 C 265.839844 230.511719 259.363281 230.113281 256.054688 228.792969 "/>
<path fill-rule="nonzero" fill="rgb(77.598572%, 100%, 99.198914%)" fill-opacity="1" d="M 277.285156 235.519531 C 277.285156 235.519531 271.398438 238.582031 263.59375 237.125 C 255.789062 235.671875 251.09375 232.960938 251.09375 232.960938 C 251.09375 232.960938 250.5 236.257812 251.425781 237.519531 C 252.351562 238.777344 263.105469 246.582031 267.085938 246.515625 C 271.066406 246.453125 281.714844 244.070312 283.960938 242.617188 C 281.582031 238.449219 277.285156 235.519531 277.285156 235.519531 "/>
<path fill-rule="nonzero" fill="rgb(40.79895%, 38.798523%, 33.299255%)" fill-opacity="1" d="M 213.164062 239.175781 C 213.164062 239.175781 199.671875 243.441406 180.132812 243.242188 C 182.015625 252.765625 188.863281 263.183594 192.929688 267.746094 C 198.484375 258.621094 214.554688 242.550781 214.554688 242.550781 C 214.554688 242.550781 213.164062 240.863281 213.164062 239.175781 "/>
<path fill-rule="nonzero" fill="rgb(60.798645%, 58.399963%, 54.499817%)" fill-opacity="1" d="M 177.023438 243.078125 C 177.023438 243.078125 163.796875 243.609375 143.691406 238.183594 C 123.585938 232.761719 115.652344 229.851562 115.914062 230.511719 C 116.179688 231.171875 127.027344 239.769531 139.722656 244.664062 C 125.171875 242.417969 110.390625 237.09375 104.636719 234.117188 C 113.46875 241.65625 125.074219 247.011719 131.621094 248.699219 C 138.167969 250.386719 151.261719 252.765625 151.261719 252.765625 C 151.261719 252.765625 139.457031 252.46875 125.074219 249.691406 C 110.691406 246.914062 97.59375 244.035156 97.59375 244.035156 C 97.59375 244.035156 108.804688 250.683594 119.917969 255.046875 C 131.027344 259.414062 132.019531 260.304688 150.964844 260.703125 C 143.722656 263.082031 136.382812 262.785156 128.347656 262.390625 C 120.3125 261.992188 100.570312 261.398438 100.570312 261.398438 C 100.570312 261.398438 110.390625 265.960938 121.601562 267.746094 C 128.847656 268.394531 141.640625 267.152344 141.640625 267.152344 C 141.640625 267.152344 127.753906 270.621094 118.230469 273.300781 C 108.707031 275.980469 100.96875 280.542969 100.96875 280.542969 C 100.96875 280.542969 111.78125 279.652344 120.511719 278.855469 C 129.242188 278.0625 135.0625 275.980469 137.308594 275.683594 C 139.558594 275.382812 140.152344 275.484375 140.152344 275.484375 C 140.152344 275.484375 128.347656 281.4375 121.503906 285.207031 C 114.660156 288.972656 105.234375 297.109375 106.324219 297.304688 C 107.417969 297.503906 128.050781 292.148438 132.613281 289.769531 C 137.175781 287.386719 152.652344 277.46875 159.894531 272.308594 C 150.269531 280.542969 139.359375 289.371094 133.109375 293.734375 C 126.859375 298.101562 112.675781 309.210938 113.46875 310.300781 C 114.261719 311.394531 141.046875 303.65625 159.695312 286.691406 C 152.058594 296.019531 131.71875 319.925781 133.507812 321.511719 C 134.699219 322.503906 137.574219 319.230469 140.351562 317.34375 C 143.128906 315.460938 157.710938 306.730469 164.160156 297.109375 C 157.613281 308.914062 147.097656 334.011719 147.890625 334.804688 C 148.683594 335.597656 154.4375 327.464844 158.605469 320.023438 C 162.769531 312.582031 167.035156 300.480469 172.195312 294.035156 C 165.847656 308.816406 162.769531 330.042969 164.554688 330.042969 C 166.34375 330.042969 165.25 318.136719 173.78125 300.976562 C 182.3125 283.816406 191.707031 269.53125 191.707031 269.53125 C 191.707031 269.53125 180.59375 261.460938 177.023438 243.078125 "/>
<path fill-rule="nonzero" fill="rgb(77.598572%, 100%, 99.198914%)" fill-opacity="1" d="M 367.886719 248.898438 C 367.886719 248.898438 371.191406 271.515625 381.710938 296.414062 C 392.222656 321.3125 409.484375 337.78125 409.484375 337.78125 C 409.484375 337.78125 470 328.457031 508.886719 310.003906 C 487.457031 292.347656 463.847656 263.183594 447.179688 236.496094 C 440.238281 236.199219 426.648438 226.644531 420.496094 221.652344 C 417.816406 231.734375 405.21875 253.066406 396.488281 252.269531 C 387.761719 251.476562 386.96875 240.761719 388.355469 229.851562 C 381.808594 238.183594 373.707031 245.523438 367.886719 248.898438 "/>
<path fill-rule="nonzero" fill="rgb(14.898682%, 72.499084%, 99.198914%)" fill-opacity="1" d="M 454.027344 216.160156 C 454.027344 216.160156 469.601562 228.761719 462.957031 233.917969 C 458.09375 237.6875 450.257812 236.796875 450.257812 236.796875 C 450.257812 236.796875 457.128906 248.5 464.605469 259.015625 C 472.082031 269.53125 499.496094 298.765625 512.191406 308.8125 C 527.929688 303.390625 556.503906 290.957031 556.503906 290.957031 C 556.503906 290.957031 538.121094 279.71875 531.503906 274.160156 C 524.890625 268.605469 522.378906 266.257812 523.171875 263.878906 C 523.964844 261.496094 529.222656 247.210938 529.222656 247.210938 C 529.222656 247.210938 522.507812 242.617188 518.542969 239.441406 C 514.113281 241.160156 504.652344 244.800781 494.203125 242.683594 C 483.757812 240.566406 474.496094 230.644531 473.964844 219.136719 C 466.164062 219.402344 454.027344 216.160156 454.027344 216.160156 "/>
<path fill-rule="nonzero" fill="rgb(0%, 0%, 0%)" fill-opacity="1" d="M 402.015625 258.554688 C 402.015625 261.21875 399.851562 263.382812 397.183594 263.382812 C 394.519531 263.382812 392.359375 261.21875 392.359375 258.554688 C 392.359375 255.886719 394.519531 253.722656 397.183594 253.722656 C 399.851562 253.722656 402.015625 255.886719 402.015625 258.554688 "/>
<path fill-rule="nonzero" fill="rgb(99.598694%, 41.999817%, 0%)" fill-opacity="1" d="M 400.359375 258.554688 C 400.359375 260.304688 398.9375 261.726562 397.183594 261.726562 C 395.433594 261.726562 394.007812 260.304688 394.007812 258.554688 C 394.007812 256.800781 395.433594 255.378906 397.183594 255.378906 C 398.9375 255.378906 400.359375 256.800781 400.359375 258.554688 "/>
<path fill-rule="nonzero" fill="rgb(0%, 0%, 0%)" fill-opacity="1" d="M 409.617188 285.109375 C 409.617188 287.554688 407.636719 289.542969 405.1875 289.542969 C 402.738281 289.542969 400.757812 287.554688 400.757812 285.109375 C 400.757812 282.664062 402.738281 280.679688 405.1875 280.679688 C 407.636719 280.679688 409.617188 282.664062 409.617188 285.109375 "/>
<path fill-rule="nonzero" fill="rgb(99.598694%, 41.999817%, 0%)" fill-opacity="1" d="M 408.101562 285.109375 C 408.101562 286.714844 406.796875 288.023438 405.1875 288.023438 C 403.582031 288.023438 402.273438 286.714844 402.273438 285.109375 C 402.273438 283.5 403.582031 282.195312 405.1875 282.195312 C 406.796875 282.195312 408.101562 283.5 408.101562 285.109375 "/>
<path fill-rule="nonzero" fill="rgb(0%, 0%, 0%)" fill-opacity="1" d="M 421.589844 312.164062 C 421.589844 314.613281 419.605469 316.597656 417.15625 316.597656 C 414.707031 316.597656 412.726562 314.613281 412.726562 312.164062 C 412.726562 309.71875 414.707031 307.734375 417.15625 307.734375 C 419.605469 307.734375 421.589844 309.71875 421.589844 312.164062 "/>
<path fill-rule="nonzero" fill="rgb(99.598694%, 41.999817%, 0%)" fill-opacity="1" d="M 420.070312 312.164062 C 420.070312 313.773438 418.761719 315.078125 417.15625 315.078125 C 415.546875 315.078125 414.242188 313.773438 414.242188 312.164062 C 414.242188 310.558594 415.546875 309.25 417.15625 309.25 C 418.761719 309.25 420.070312 310.558594 420.070312 312.164062 "/>
<path fill-rule="nonzero" fill="rgb(77.598572%, 100%, 99.198914%)" fill-opacity="1" d="M 551.875 171.785156 C 551.875 171.785156 531.601562 173.109375 514.144531 181.042969 C 496.683594 188.980469 482.398438 200.289062 482.300781 203.265625 C 482.199219 206.242188 486.664062 204.355469 489.9375 208.027344 C 493.210938 211.699219 487.359375 216.359375 478.628906 219.039062 C 478.628906 224.691406 484.976562 245.328125 516.722656 237.6875 C 512.753906 232.828125 512.722656 229.585938 514.3125 228.660156 C 515.898438 227.734375 522.179688 231.242188 526.414062 234.414062 C 526.875 225.617188 528.660156 217.484375 529.453125 213.25 C 530.246094 209.019531 530.976562 206.109375 534.351562 204.984375 C 537.722656 203.859375 542.152344 203.132812 547.707031 199.03125 C 553.261719 194.929688 552.730469 192.746094 550.816406 191.691406 C 548.898438 190.632812 542.683594 187.59375 542.8125 182.960938 C 542.945312 178.332031 547.113281 175.222656 551.875 171.785156 "/>
<path fill-rule="nonzero" fill="rgb(0%, 0%, 0%)" fill-opacity="1" d="M 504.457031 190.566406 C 510.472656 187.988281 515.964844 187.921875 517.882812 191.164062 C 519.796875 194.402344 518.550781 202.703125 507.035156 208.027344 C 500.882812 210.871094 495.460938 209.8125 493.542969 206.175781 C 491.625 202.539062 493.808594 195.128906 504.457031 190.566406 "/>
<path fill-rule="nonzero" fill="rgb(99.598694%, 41.999817%, 0%)" fill-opacity="1" d="M 505.113281 192.484375 C 505.113281 192.484375 494.074219 197.511719 494.800781 203.597656 C 495.527344 209.679688 502.472656 207.761719 503.925781 207.234375 C 504.257812 200.882812 505.113281 192.484375 505.113281 192.484375 "/>
<path fill-rule="nonzero" fill="rgb(99.598694%, 41.999817%, 0%)" fill-opacity="1" d="M 507.296875 191.359375 C 507.296875 191.359375 505.757812 198.238281 505.765625 206.507812 C 509.746094 205.050781 517.21875 199.957031 516.691406 194.402344 C 516.160156 188.847656 509.480469 190.238281 507.296875 191.359375 "/>
<path fill-rule="nonzero" fill="rgb(77.598572%, 100%, 99.198914%)" fill-opacity="1" d="M 528.726562 232.925781 C 528.726562 232.925781 536.925781 216.957031 540.628906 217.21875 C 544.332031 217.484375 545.523438 224.957031 545.328125 231.042969 C 549.359375 226.742188 556.699219 221.71875 558.753906 223.039062 C 560.800781 224.363281 557.296875 232.097656 555.644531 233.753906 C 561.660156 229.585938 569.070312 223.105469 576.078125 213.316406 C 583.085938 203.53125 590.03125 189.972656 584.179688 180.945312 C 578.328125 171.917969 560.273438 169.140625 552.734375 174 C 545.195312 178.863281 543.109375 183.824219 547.472656 187.589844 C 551.839844 191.359375 557.519531 193.179688 552.148438 198.421875 C 546.78125 203.664062 541.421875 205.480469 537.953125 206.507812 C 534.480469 207.53125 533.386719 208.125 532.695312 210.707031 C 532 213.285156 529.617188 223.898438 528.726562 232.925781 "/>
<path fill-rule="nonzero" fill="rgb(100%, 100%, 100%)" fill-opacity="1" d="M 530.214844 246.019531 C 530.214844 246.019531 522.640625 241.554688 519.535156 237.722656 C 516.425781 233.886719 514.773438 231.039062 516.425781 230.976562 C 518.078125 230.910156 525.75 235.539062 528.460938 237.65625 C 530.777344 231.703125 537.390625 220.394531 540.300781 220.527344 C 543.207031 220.65625 543.539062 229.324219 543.605469 235.339844 C 547.773438 230.84375 554.519531 225.550781 555.84375 226.480469 C 557.164062 227.40625 551.410156 237.457031 551.410156 237.457031 C 551.410156 237.457031 566.15625 232.429688 567.085938 233.753906 C 568.011719 235.074219 560.980469 240.894531 557.550781 242.152344 C 550.945312 242.617188 539.570312 244.664062 530.214844 246.019531 "/>
<path fill-rule="nonzero" fill="rgb(77.598572%, 100%, 99.198914%)" fill-opacity="1" d="M 539.835938 246.652344 C 539.835938 246.652344 535.078125 247.113281 531.769531 247.378906 C 529.914062 253.261719 527.335938 263.050781 527.867188 264.707031 C 528.398438 266.355469 540.566406 275.683594 547.644531 280.710938 C 554.71875 285.738281 568.738281 293.871094 570.855469 294.066406 C 572.96875 294.265625 581.371094 290.097656 588.183594 284.148438 C 594.992188 278.195312 599.820312 271.183594 601.210938 265.5625 C 598.300781 263.316406 596.648438 262.523438 596.648438 262.523438 C 596.648438 262.523438 592.28125 270.324219 584.675781 274.226562 C 577.070312 278.128906 568.804688 281.566406 560.007812 279.453125 C 551.214844 277.335938 543.539062 271.78125 540.828125 264.304688 C 538.117188 256.835938 539.835938 246.652344 539.835938 246.652344 "/>
<path fill-rule="nonzero" fill="rgb(77.598572%, 100%, 99.198914%)" fill-opacity="1" d="M 541.46875 258.023438 C 541.46875 258.023438 543.210938 269.136719 554.253906 274.359375 C 565.300781 279.585938 576.277344 277.269531 582.824219 272.175781 C 578.0625 271.914062 573.167969 269.929688 570.785156 266.621094 C 566.359375 269.398438 562.148438 271.714844 562.148438 271.714844 Z M 541.46875 258.023438 "/>
<path fill-rule="nonzero" fill="rgb(77.598572%, 100%, 99.198914%)" fill-opacity="1" d="M 562.148438 269.996094 C 562.148438 269.996094 562.761719 261.859375 557.550781 255.910156 C 552.335938 249.957031 546.277344 245.277344 541.46875 246.367188 C 540.777344 250.734375 540.976562 253.511719 541.027344 255.496094 C 544.597656 257.082031 562.148438 269.996094 562.148438 269.996094 "/>
<path fill-rule="nonzero" fill="rgb(77.598572%, 100%, 99.198914%)" fill-opacity="1" d="M 564.039062 268.144531 L 578.027344 259.363281 C 578.027344 259.363281 575.152344 252.867188 571.035156 250.335938 C 566.917969 247.808594 558.882812 242.398438 548.269531 245.425781 C 557.195312 249.492188 564.128906 256.242188 564.039062 268.144531 "/>
<path fill-rule="nonzero" fill="rgb(14.898682%, 72.499084%, 99.198914%)" fill-opacity="1" d="M 572.277344 265.5625 C 572.277344 265.5625 575.050781 264.273438 576.988281 263.085938 C 580.558594 265.316406 584.941406 267.617188 588.644531 268.671875 C 586.59375 270.789062 584.941406 270.988281 584.941406 270.988281 C 584.941406 270.988281 576.210938 269.996094 572.277344 265.5625 "/>
<path fill-rule="nonzero" fill="rgb(100%, 100%, 100%)" fill-opacity="1" d="M 588.246094 254.851562 C 588.246094 254.851562 618.734375 261.730469 634.808594 265.894531 C 627.53125 268.339844 612.917969 273.300781 612.917969 273.300781 L 602.480469 271.464844 C 602.480469 271.464844 604.019531 266.257812 603.128906 265.117188 C 602.234375 263.976562 596.925781 260.355469 596.035156 261.101562 C 595.140625 261.84375 590.378906 267.25 590.378906 267.25 C 590.378906 267.25 588.890625 262.933594 588.246094 254.851562 "/>
<path fill-rule="nonzero" fill="rgb(100%, 100%, 100%)" fill-opacity="1" d="M 405.453125 341.089844 C 405.453125 341.089844 394.472656 353.652344 389.445312 358.546875 C 384.421875 363.441406 379.261719 368.335938 380.984375 368.335938 C 382.699219 368.335938 401.222656 360 411.800781 351.40625 C 407.570312 362.777344 401.617188 386.324219 405.847656 387.648438 C 410.082031 388.96875 427.804688 375.082031 438.386719 351.144531 C 444.207031 366.617188 460.875 388.835938 472.910156 385.792969 C 484.945312 382.753906 472.972656 347.503906 471.785156 342.742188 C 482.300781 349.484375 515.828125 360 524.757812 354.84375 C 533.683594 349.6875 505.113281 330.242188 505.113281 330.242188 C 505.113281 330.242188 533.382812 329.050781 541.46875 323.894531 C 549.558594 318.734375 550.351562 316.75 537.851562 314.566406 C 525.351562 312.386719 514.640625 312.78125 514.640625 312.78125 C 514.640625 312.78125 468.808594 335.402344 405.453125 341.089844 "/>
<path fill-rule="nonzero" fill="rgb(14.898682%, 72.499084%, 99.198914%)" fill-opacity="1" d="M 499.957031 436.386719 C 499.957031 436.386719 497.574219 450.671875 481.308594 454.242188 C 465.039062 457.816406 456.308594 467.140625 452.140625 476.863281 C 483.289062 476.070312 543.40625 476.863281 543.40625 476.863281 C 543.40625 476.863281 544.199219 463.570312 536.265625 459.203125 C 528.328125 454.839844 511.066406 453.648438 514.242188 436.386719 C 505.3125 436.585938 499.957031 436.386719 499.957031 436.386719 "/>
<path fill-rule="nonzero" fill="rgb(0%, 0%, 0%)" fill-opacity="1" d="M 562.257812 184.464844 C 560.640625 184.464844 559.328125 183.15625 559.328125 181.539062 C 559.328125 179.921875 560.640625 178.613281 562.257812 178.613281 C 563.875 178.613281 565.183594 179.921875 565.183594 181.539062 C 565.183594 183.15625 563.875 184.464844 562.257812 184.464844 M 562.257812 177.027344 C 559.765625 177.027344 557.742188 179.046875 557.742188 181.539062 C 557.742188 184.03125 559.765625 186.054688 562.257812 186.054688 C 564.746094 186.054688 566.769531 184.03125 566.769531 181.539062 C 566.769531 179.046875 564.746094 177.027344 562.257812 177.027344 "/>
</svg>
